# xmcd
# 
# Track frame offsets:
#     150
#     21857
#     38067
#     66047
#     91740
#     119197
#     134317
#     168315
#     198845
#     219500
#     239327
# 
# Disc length: 3370
# 
# Revision: 1
# Processed by: cddbd v1.5.2PL0 Copyright (c) Steve Scherf et al.
# Submitted via: BonkEnc v1.0.6
# 
DISCID=950d280b
DTITLE=Ronald Shannon Jackson - What Spirit Say
DYEAR=1994
DGENRE=Contemporary Jazz
TTITLE0=What Spirit Say
TTITLE1=Opinions
TTITLE2=Terminal "B"
TTITLE3=Cameroon Morning
TTITLE4=Aged Pain
TTITLE5=Sorcerer's Kitchen (Abed Nego/Ode to Hieronymus/Horus March)
TTITLE6=Serenade For Magicians
TTITLE7=A Night In Seville
TTITLE8=Front Seat Frisco
TTITLE9=Now's The Time
TTITLE10=Missing Link
EXTD=YEAR: 1994
EXTT0=
EXTT1=
EXTT2=
EXTT3=
EXTT4=
EXTT5=
EXTT6=
EXTT7=
EXTT8=
EXTT9=
EXTT10=
PLAYORDER=
